<?xml version="1.0" standalone="no"?>
<!DOCTYPE svg PUBLIC "-//W3C//DTD SVG 20010904//EN"
 "http://www.w3.org/TR/2001/REC-SVG-20010904/DTD/svg10.dtd">
<svg version="1.0" xmlns="http://www.w3.org/2000/svg"
 width="500.000000pt" height="500.000000pt" viewBox="0 0 500.000000 500.000000"
 preserveAspectRatio="xMidYMid meet">
<metadata>
Created by potrace 1.11, written by Peter Selinger 2001-2013
</metadata>
<g transform="translate(0.000000,500.000000) scale(0.100000,-0.100000)"
fill="#000000" stroke="none">
<path d="M1254 2602 c-77 -36 -119 -120 -112 -224 8 -123 68 -188 179 -196 66
-5 111 9 135 42 15 20 16 18 11 -29 -7 -64 -39 -95 -100 -95 -45 0 -87 22 -87
46 0 11 -15 14 -65 14 -74 0 -76 -4 -42 -64 36 -64 75 -81 187 -81 117 0 159
18 208 89 l32 48 0 229 0 229 -65 0 c-59 0 -65 -2 -65 -21 0 -21 0 -21 -19 2
-26 33 -137 39 -197 11z m161 -82 c31 -12 55 -63 55 -120 0 -83 -38 -130 -105
-130 -61 0 -105 88 -86 173 16 71 70 102 136 77z"/>
<path d="M1824 2602 c-12 -9 -26 -26 -32 -37 -10 -18 -11 -17 -12 13 l0 32
-70 0 -70 0 0 -215 0 -215 70 0 70 0 0 120 c0 170 21 210 111 210 29 0 29 1
29 55 l0 55 -37 0 c-21 0 -48 -8 -59 -18z"/>
<path d="M2009 2592 c-43 -22 -59 -38 -81 -81 -48 -91 -33 -217 33 -281 57
-54 161 -75 252 -49 53 14 113 77 131 136 9 29 15 39 15 25 2 -52 47 -114 104
-144 160 -81 337 22 337 197 0 175 -177 278 -337 197 -57 -30 -102 -92 -104
-144 0 -14 -6 -4 -15 25 -40 131 -202 189 -335 119z m161 -77 c61 -31 68 -174
12 -230 -31 -31 -72 -32 -107 -2 -53 45 -55 168 -4 219 31 32 57 35 99 13z
m471 -11 c21 -23 24 -35 24 -109 0 -74 -3 -86 -24 -109 -27 -28 -76 -35 -113
-15 -62 33 -63 212 -1 248 34 20 88 13 114 -15z"/>
<path d="M3359 2606 c-116 -41 -172 -161 -135 -287 28 -99 91 -143 201 -143
103 0 175 44 199 122 7 21 5 22 -51 22 -54 0 -61 -3 -81 -30 -19 -25 -29 -30
-66 -30 -49 0 -72 19 -82 68 l-6 32 152 0 153 0 -6 59 c-6 71 -35 128 -81 159
-61 42 -131 52 -197 28z m121 -96 c11 -11 20 -24 20 -29 0 -5 3 -16 6 -25 5
-14 -6 -16 -81 -16 -75 0 -86 2 -81 16 3 9 6 19 6 23 0 4 9 17 20 29 27 29 83
29 110 2z"/>
<path d="M2796 2569 c9 -22 47 -118 84 -212 l67 -172 69 -3 70 -3 76 198 c42
109 80 206 84 216 6 16 0 18 -61 15 l-68 -3 -46 -157 c-25 -87 -49 -158 -52
-158 -3 0 -21 51 -39 113 -18 61 -39 133 -47 160 l-14 47 -69 0 -70 0 16 -41z"/>
<path d="M2589 2084 c-3 -20 3 -59 9 -66 4 -4 7 9 6 28 -1 31 -12 60 -15 38z"/>
<path d="M3289 2084 c-3 -20 3 -59 9 -66 4 -4 7 9 6 28 -1 31 -12 60 -15 38z"/>
<path d="M1783 2045 c0 -22 2 -30 4 -17 2 12 2 30 0 40 -3 9 -5 -1 -4 -23z"/>
<path d="M1911 2041 c1 -36 1 -36 8 -6 8 40 38 46 44 8 4 -28 4 -28 3 2 -1 26
-5 30 -28 31 -26 1 -28 -2 -27 -35z"/>
<path d="M2092 2050 c14 -41 26 -46 38 -15 14 37 11 46 -4 11 l-13 -29 -11 32
c-6 17 -13 31 -16 31 -3 0 0 -14 6 -30z"/>
<path d="M2267 2073 c-4 -3 -7 -17 -7 -30 0 -26 26 -41 42 -25 8 8 5 9 -11 5
-12 -3 -21 -1 -21 6 0 6 11 11 25 11 27 0 32 9 13 28 -13 13 -31 16 -41 5z
m38 -13 c3 -5 -3 -10 -14 -10 -12 0 -21 5 -21 10 0 6 6 10 14 10 8 0 18 -4 21
-10z"/>
<path d="M2434 2068 c-4 -6 0 -16 9 -23 22 -16 22 -29 0 -20 -14 5 -15 3 -6
-6 6 -6 20 -9 30 -5 17 7 16 9 -4 26 -26 21 -30 35 -7 26 8 -3 12 -2 9 4 -8
13 -22 13 -31 -2z"/>
<path d="M2731 2040 c1 -34 1 -35 8 -6 9 43 31 45 32 4 l1 -33 7 29 c9 42 29
44 34 4 l4 -33 1 36 2 37 -45 -1 c-45 -2 -45 -2 -44 -37z"/>
<path d="M2947 2073 c-4 -3 -7 -17 -7 -30 0 -26 26 -41 42 -25 8 8 5 9 -11 5
-12 -3 -21 -1 -21 6 0 6 11 11 25 11 27 0 32 9 13 28 -13 13 -31 16 -41 5z
m38 -13 c3 -5 -3 -10 -14 -10 -12 0 -21 5 -21 10 0 6 6 10 14 10 8 0 18 -4 21
-10z"/>
<path d="M3111 2041 c1 -36 1 -36 8 -6 8 40 38 46 44 8 4 -28 4 -28 3 2 -1 26
-5 30 -28 31 -26 1 -28 -2 -27 -35z"/>
</g>
</svg>
